<svg id="f8b7072d-f65b-4e00-814d-415e129073a4" data-name="1234563" xmlns="http://www.w3.org/2000/svg" viewBox="0 0 582.06 141.73"><title>logo</title><path d="M20.62,78.54a2.56,2.56,0,1,1-2.55-2.45A2.5,2.5,0,0,1,20.62,78.54Z" transform="translate(-4.91 -7.09)" fill="#58595b"/><path d="M135.33,78.54a2.55,2.55,0,1,1-2.56-2.45A2.5,2.5,0,0,1,135.33,78.54Z" transform="translate(-4.91 -7.09)" fill="#58595b"/><path d="M75.77,124.78a46.85,46.85,0,1,1,46.85-46.84,46.9,46.9,0,0,1-46.85,46.84Zm0-92.57a45.74,45.74,0,1,0,45.74,45.73A45.79,45.79,0,0,0,75.77,32.21Z" transform="translate(-4.91 -7.09)" fill="#58595b"/><path d="M14.2,57.22a3.95,3.95,0,0,1,5.73,2,4.61,4.61,0,0,1,0,3.31,4.72,4.72,0,0,1-2.08,2.6,3.73,3.73,0,0,1-3.31.34,3.78,3.78,0,0,1-2.42-2.31,4.63,4.63,0,0,1,0-3.32A4.71,4.71,0,0,1,14.2,57.22Zm-.28,5a2.07,2.07,0,0,0,1.31,1.27A2.09,2.09,0,0,0,17,63.3a2.52,2.52,0,0,0,1.18-1.41,2.49,2.49,0,0,0-.06-1.78,2.09,2.09,0,0,0-1.25-1.28A2.24,2.24,0,0,0,15,59a2.44,2.44,0,0,0-1.16,1.37A2.52,2.52,0,0,0,13.92,62.23Zm1.3-9.42.65-1.91,9.3,3.21L24.51,56Zm5.32,13.35.67-1.91,3.11,1.07,3.61-10.39,1.69.58-3.9,11.18a1.15,1.15,0,0,1-.56.73,1.43,1.43,0,0,1-1.05,0Z" transform="translate(-4.91 -7.09)" fill="#58595b"/><path d="M27.39,37.81a4.35,4.35,0,0,1,1.74.2,4.67,4.67,0,0,1,1.59.84,5.18,5.18,0,0,1,1.9,3,4.53,4.53,0,0,1-4.31,5.23A5.16,5.16,0,0,1,25,45.82a4.86,4.86,0,0,1-1.14-1.36,4.73,4.73,0,0,1-.55-1.69l-1,1.24L20.93,42.9,23.3,40l-1.09-.89,1.4-1.67,1.07.87L27,35.46l1.35,1.13ZM25,42.42a4.14,4.14,0,0,0,1.3,1.83,3.54,3.54,0,0,0,2,.85,2.18,2.18,0,0,0,1.93-.81,2.15,2.15,0,0,0,.41-2,3.38,3.38,0,0,0-1.2-1.81,3.62,3.62,0,0,0-2.07-.86,2.15,2.15,0,0,0-1.95.78A2.19,2.19,0,0,0,25,42.42Zm9.73-6.29L40.62,41l-1.3,1.55L28.06,33.29l1.28-1.55,4,3.28,1.28-1.58L36,34.56Z" transform="translate(-4.91 -7.09)" fill="#58595b"/><path d="M52.77,28.17a4,4,0,0,0-3-1.9l3.14-1.85L52,22.89l-.65.38L48.52,18.4,36.84,25.29l.91,1.54,9.93-5.89,2,3.36-4,2.39-1.23-2.11-1.71,1,1.22,2.09-4.62,2.73L40.18,32l3-1.75a3.9,3.9,0,0,0,.25,3.5,4.31,4.31,0,0,0,3.25,2.18,5.75,5.75,0,0,0,3.92-.79,5.68,5.68,0,0,0,2.52-3A4.34,4.34,0,0,0,52.77,28.17Zm-1.68,3.5a3.22,3.22,0,0,1-1.46,1.9,3.16,3.16,0,0,1-2.4.37,2.77,2.77,0,0,1-1.92-1.35A2.84,2.84,0,0,1,45,30.21a3.3,3.3,0,0,1,1.49-1.9,3.18,3.18,0,0,1,2.36-.37,2.86,2.86,0,0,1,2.21,3.73Z" transform="translate(-4.91 -7.09)" fill="#58595b"/><path d="M62.6,21.23a4.45,4.45,0,0,0,2.67-1.55,3.48,3.48,0,0,0,.85-2.05L70,17l.48,2.65,2-.35-1.2-6.75-2,.36.41,2.34-3.8.7a3.64,3.64,0,0,0-1.57-1.77,4.52,4.52,0,0,0-3-.48,4.39,4.39,0,0,0-2.7,1.52,3.54,3.54,0,0,0-.8,3,3.5,3.5,0,0,0,1.79,2.54A4.43,4.43,0,0,0,62.6,21.23Zm-2.85-3.41a1.88,1.88,0,0,1,.44-1.56,2.17,2.17,0,0,1,1.38-.79,2.31,2.31,0,0,1,1.59.25,1.85,1.85,0,0,1,.5,2.87,2.26,2.26,0,0,1-3,.55A1.92,1.92,0,0,1,59.75,17.82Z" transform="translate(-4.91 -7.09)" fill="#58595b"/><path d="M73.53,25.49l-.87-4.92-2,.36.23,1.37-8.76,1.58-.26-1.38L60,22.86l.86,4.9a1.58,1.58,0,0,0,.48.95,1.34,1.34,0,0,0,.94.12L72.57,27a1.21,1.21,0,0,0,.81-.44A1.29,1.29,0,0,0,73.53,25.49ZM62.71,27l-.27-1.46,8.79-1.58.26,1.47Z" transform="translate(-4.91 -7.09)" fill="#58595b"/><path d="M80.16,22l2,.35-.59,3.19,10.83,1.94-.33,1.74L80.45,27.1a1.17,1.17,0,0,1-.83-.44,1.42,1.42,0,0,1-.13-1Zm9.38-6.15-3.31-.6a4.75,4.75,0,0,0,.22,2.84,3.54,3.54,0,0,0,2.4,1.8l-.35,1.92a5.52,5.52,0,0,1-2.1-.93,4.62,4.62,0,0,1-1.85-2.22A4.84,4.84,0,0,1,82,20a5.67,5.67,0,0,1-2.3.16l.36-1.91A3.61,3.61,0,0,0,83,17.43a5,5,0,0,0,1.18-2.59l-3.23-.59.32-1.74,8.64,1.55Zm2.53,1.44.5-2.7,2,.34-1.78,9.69-2-.35,1-5.22-2.36-.42.33-1.76Z" transform="translate(-4.91 -7.09)" fill="#58595b"/><path d="M99.11,30.34,109,36.23l-.9,1.53-10.6-6.3a1.13,1.13,0,0,1-.61-.7,1.37,1.37,0,0,1,.25-1l1.77-3,1.73,1Zm5.58-1.66-5.56-3.29.89-1.53,12.52,7.44-.89,1.52L106.4,29.7,105,32.1l-1.69-1Zm-.79-10.3,11.65,6.93-2,3.39a1.57,1.57,0,0,1-.81.74,1.29,1.29,0,0,1-.94-.21l-9.6-5.7a1.17,1.17,0,0,1-.59-.7,1.51,1.51,0,0,1,.29-1.06ZM113,25.8l-8.3-4.93-.92,1.54,8.31,4.94Z" transform="translate(-4.91 -7.09)" fill="#58595b"/><path d="M130.34,40.84l-3.61,2.92-1-1.22,3.62-2.94-1.18-1.44-7.4,6-3.87-4.79,6-4.88L125.79,38l1.4-1.13-4.14-5.12-7.94,6.42a1.06,1.06,0,0,0-.46.87,1.49,1.49,0,0,0,.42.84l4.32,5.35-2.57,2.07L118,48.79l6.36-5.14,1,1.24L119,50l1.19,1.49,11.35-9.19Z" transform="translate(-4.91 -7.09)" fill="#58595b"/><path d="M126.87,68.52l-.65-1.9,4-1.36L126.71,55l1.69-.58,4.15,12.2Zm9.69-9.62a3.06,3.06,0,0,1-.58.71,2.29,2.29,0,0,1-.83.47,3.16,3.16,0,0,1-2.82-.27,4,4,0,0,1-1.79-2.26,4.08,4.08,0,0,1,0-2.92,3.16,3.16,0,0,1,2-2,2.52,2.52,0,0,1,.95-.14,2.65,2.65,0,0,1,.92.23l-.39-1.11,1.63-.55,1.09,3.23,1.34-.44.71,2-1.34.46,1.06,3.05-1.65.56Zm-2-4.21a1.67,1.67,0,0,0-1.39-.14,1.64,1.64,0,0,0-1,1,2,2,0,0,0-.08,1.46,2.06,2.06,0,0,0,1,1.11,1.61,1.61,0,0,0,2.39-.83,2,2,0,0,0-.88-2.56Zm2.16,10.45-2.69.93-.65-1.91L140,61.89l.65,1.9-2.23.77.65,1.93-1.67.57Z" transform="translate(-4.91 -7.09)" fill="#58595b"/><path d="M75.77,148.82a70.87,70.87,0,1,1,70.87-70.88,70.95,70.95,0,0,1-70.87,70.88Zm0-140a69.1,69.1,0,1,0,69.11,69.09A69.16,69.16,0,0,0,75.77,8.85Z" transform="translate(-4.91 -7.09)" fill="#58595b"/><path d="M14.46,87.77,22.84,86l.35,1.69L14.8,89.46Z" transform="translate(-4.91 -7.09)" fill="#58595b"/><path d="M15.27,91.67l8.17-2.53.5,1.6-4.42,5L25,94.08l.48,1.53-8.18,2.54-.5-1.66,4.31-4.94L15.75,93.2Z" transform="translate(-4.91 -7.09)" fill="#58595b"/><path d="M18.21,100.64,26,97.15l.71,1.57-3.08,1.37,1.38,3.1,3.07-1.39.71,1.58-7.8,3.5-.7-1.57,3.41-1.53-1.39-3.09-3.41,1.53Z" transform="translate(-4.91 -7.09)" fill="#58595b"/><path d="M26.21,115.69l-1-1.6,1.27-1.66-1.79-2.91-2,.42-1-1.57,9-1.64,1,1.57Zm1.22-4.48,2.09-2.66-3.31.66Z" transform="translate(-4.91 -7.09)" fill="#58595b"/><path d="M30.63,121.07l5.24-4.79-1.71-1.88,1.07-1,4.59,5-1.07,1L37,117.55l-5.25,4.79Z" transform="translate(-4.91 -7.09)" fill="#58595b"/><path d="M35,125.59,40.37,119l4.92,4-.91,1.13-3.59-2.91-1.19,1.47,3.34,2.71L42,126.47l-3.33-2.71-1.46,1.81,3.7,3L40,129.7Z" transform="translate(-4.91 -7.09)" fill="#58595b"/><path d="M48.34,131l1.19,1.29a3.39,3.39,0,0,1-4.45.66,3.67,3.67,0,0,1-1.86-2.39,4.46,4.46,0,0,1,.6-3.32,4.71,4.71,0,0,1,2.59-2.34,3.74,3.74,0,0,1,3.1.39,3.24,3.24,0,0,1,1.76,3.87l-1.69-.49a1.84,1.84,0,0,0,0-1.23,1.82,1.82,0,0,0-.83-.91,1.94,1.94,0,0,0-1.67-.16A3.38,3.38,0,0,0,45.43,128a3.62,3.62,0,0,0-.62,2.3,1.87,1.87,0,0,0,1,1.34,1.74,1.74,0,0,0,1.26.2A2.56,2.56,0,0,0,48.34,131Z" transform="translate(-4.91 -7.09)" fill="#58595b"/><path d="M50.59,135.58l2.84-8.06,1.64.57L54,131.26l3.2,1.13,1.1-3.17,1.64.57L57,137.86l-1.63-.58,1.25-3.52-3.19-1.13-1.25,3.52Z" transform="translate(-4.91 -7.09)" fill="#58595b"/><path d="M59.57,138.52l1.56-8.41,1.66.31,2.4,6.25,1-5.61,1.58.3-1.57,8.4-1.7-.32-2.37-6.12-1,5.49Z" transform="translate(-4.91 -7.09)" fill="#58595b"/><path d="M68.64,140l.76-8.51,1.72.15-.75,8.52Z" transform="translate(-4.91 -7.09)" fill="#58595b"/><path d="M78.1,137.19l1.67.53a3.77,3.77,0,0,1-1.29,2.08,3.58,3.58,0,0,1-2.27.67,3.67,3.67,0,0,1-2.79-1.16,4.45,4.45,0,0,1-1.09-3.19,4.68,4.68,0,0,1,1.11-3.31,3.78,3.78,0,0,1,2.91-1.18,3.51,3.51,0,0,1,2.53.93,3.21,3.21,0,0,1,.87,1.59l-1.71.4a1.79,1.79,0,0,0-.62-1.06,1.89,1.89,0,0,0-1.17-.38,2,2,0,0,0-1.54.67,3.35,3.35,0,0,0-.6,2.22,3.59,3.59,0,0,0,.57,2.31,1.93,1.93,0,0,0,1.52.69,1.77,1.77,0,0,0,1.19-.44A2.5,2.5,0,0,0,78.1,137.19Z" transform="translate(-4.91 -7.09)" fill="#58595b"/><path d="M89.55,139.44l-1.87.19-.94-1.86-3.4.34-.5,2-1.83.18,2.46-8.84,1.81-.18Zm-3.5-3.05-1.49-3-.83,3.27Z" transform="translate(-4.91 -7.09)" fill="#58595b"/><path d="M91.06,139.11l-1.39-8.37,1.7-.28,1.16,6.94,4.23-.7.23,1.42Z" transform="translate(-4.91 -7.09)" fill="#58595b"/><path d="M105.81,129.6l1.72-.38a3.89,3.89,0,0,1-.06,2.45,3.73,3.73,0,0,1-1.63,1.72,3.65,3.65,0,0,1-3,.39,4.45,4.45,0,0,1-2.55-2.2,4.65,4.65,0,0,1-.71-3.42,3.75,3.75,0,0,1,1.92-2.48,3.55,3.55,0,0,1,2.67-.47,3.39,3.39,0,0,1,1.55.92l-1.29,1.21a1.8,1.8,0,0,0-1.07-.59,1.78,1.78,0,0,0-1.2.26,1.93,1.93,0,0,0-1,1.36,3.3,3.3,0,0,0,.59,2.21,3.58,3.58,0,0,0,1.66,1.71,1.94,1.94,0,0,0,1.67-.17,1.81,1.81,0,0,0,.8-1A2.52,2.52,0,0,0,105.81,129.6Z" transform="translate(-4.91 -7.09)" fill="#58595b"/><path d="M107.88,127.09a5.64,5.64,0,0,1-1-2,4.52,4.52,0,0,1-.1-1.42,3.49,3.49,0,0,1,.4-1.28,4.64,4.64,0,0,1,1.24-1.41,4,4,0,0,1,3.11-.94,4.54,4.54,0,0,1,2.9,1.87,4.45,4.45,0,0,1,1.11,3.25,4,4,0,0,1-1.65,2.77,4.07,4.07,0,0,1-3.1,1A4.42,4.42,0,0,1,107.88,127.09Zm1.37-1.15a3.11,3.11,0,0,0,1.88,1.32,2.31,2.31,0,0,0,2.68-2.09A3.25,3.25,0,0,0,113,123a3.17,3.17,0,0,0-1.86-1.34,2.39,2.39,0,0,0-2.7,2.12A3.22,3.22,0,0,0,109.25,125.94Z" transform="translate(-4.91 -7.09)" fill="#58595b"/><path d="M118.64,123.72l-6.11-5.88,1.2-1.25,5.07,4.89,3-3.1,1,1Z" transform="translate(-4.91 -7.09)" fill="#58595b"/><path d="M124.1,117.8l-6.84-5,1-1.39,5.68,4.17,2.54-3.46,1.16.85Z" transform="translate(-4.91 -7.09)" fill="#58595b"/><path d="M128.75,111.21l-7.54-4,3-5.6,1.27.68-2.17,4.07,1.68.89,2-3.78,1.27.67-2,3.79,2.06,1.1,2.24-4.23,1.28.68Z" transform="translate(-4.91 -7.09)" fill="#58595b"/><path d="M131.11,98.41,129.74,98l1.18-3.53,3.23,1.08a4.81,4.81,0,0,1,.38,1.79,5.87,5.87,0,0,1-.28,2.1,4.58,4.58,0,0,1-1.28,2,3.61,3.61,0,0,1-2,.91,5.13,5.13,0,0,1-2.32-.24,5,5,0,0,1-2.08-1.3,3.87,3.87,0,0,1-1-2.06,4.45,4.45,0,0,1,.25-2.07,4.13,4.13,0,0,1,1.42-2.15,3.06,3.06,0,0,1,2.13-.5l-.24,1.73a1.93,1.93,0,0,0-1.18.32,2.25,2.25,0,0,0-.73,1.07,2.34,2.34,0,0,0,.11,1.93,3.07,3.07,0,0,0,1.8,1.32,3.37,3.37,0,0,0,2.39.08A2.3,2.3,0,0,0,132.81,99a3.05,3.05,0,0,0,.15-1.1,3.63,3.63,0,0,0-.2-1.05l-1-.35Z" transform="translate(-4.91 -7.09)" fill="#58595b"/><path d="M135.81,93.47,127.38,92l1.08-6.25,1.42.24-.77,4.55,1.86.32.73-4.23,1.42.25-.73,4.23,2.29.39.82-4.7,1.41.24Z" transform="translate(-4.91 -7.09)" fill="#58595b"/><path d="M65.06,51.51s.09-11.83,10-12.1h9.1V49.65H89v2.5h11.25l4.41,50.94-28.88,10-28.68-9.7,4.15-51.91Z" transform="translate(-4.91 -7.09)" fill="#fff"/><path d="M86.61,47.93h3.9v2.29h11.33l4.72,54.72-29.37,9.31a5.44,5.44,0,0,1-3.12,0l-29.25-9L49.48,50H63.89c1.46-12.43,11.82-12.33,11.82-12.33H86.62Zm-3.4-7h-8s-8.37.75-8.43,12.29H52.22L48.07,103l27.62,8.76,27.77-8.91L99.19,53.19H87.29l0-2h-4Z" transform="translate(-4.91 -7.09)" fill="#1e398d"/><polygon points="61.81 59.37 47.82 59.37 48.79 47.73 61.81 47.73 61.81 59.37" fill="#009b56"/><rect x="64.95" y="47.73" width="5.12" height="11.64" fill="#009b56"/><polygon points="82.37 47.73 82.37 49.66 78.27 49.66 78.27 57.28 82.37 57.28 82.37 59.37 93.74 59.37 92.74 47.73 82.37 47.73" fill="#009b56"/><path d="M74.94,53.19l0-7.45s-4.87-.4-5.14,7.45Z" transform="translate(-4.91 -7.09)" fill="#1e398d"/><path d="M49.8,101.72l25.89,8.14,25.9-8.14-2.84-34H87.3v2H83.19v5.91H75V67.7H69.86s0,8-10.83,7.86V72.45s6.66.66,7.68-4.75H52.62Z" transform="translate(-4.91 -7.09)" fill="#1e398d"/><path d="M58,97.44V84H56.47V82h3.81V97.44Z" transform="translate(-4.91 -7.09)" fill="#fff"/><path d="M64.88,97.44l3.13-5h-.8a4.3,4.3,0,0,1-3.32-1.54,5.3,5.3,0,0,1-1.38-3.69,5.86,5.86,0,0,1,.18-1.44,5.4,5.4,0,0,1,.59-1.4,5.15,5.15,0,0,1,1.82-2,5,5,0,0,1,4.55-.29,5,5,0,0,1,1.64,1.17A5.58,5.58,0,0,1,72.4,85a5.19,5.19,0,0,1,.39,2,6.52,6.52,0,0,1-.65,2.75,23.52,23.52,0,0,1-1.53,2.65v0l-3.2,5Zm5-12.54a2.81,2.81,0,0,0-2.1-.92,2.85,2.85,0,0,0-2.15.86,3.66,3.66,0,0,0,0,4.64,2.73,2.73,0,0,0,2.12.89,2.84,2.84,0,0,0,2.17-.93,3,3,0,0,0,.86-2.13A3.47,3.47,0,0,0,69.83,84.9Z" transform="translate(-4.91 -7.09)" fill="#fff"/><path d="M75.84,92.54a3.3,3.3,0,0,0,1,2.12,2.55,2.55,0,0,0,1.9.78,2.81,2.81,0,0,0,2.15-.94,3.45,3.45,0,0,0,.83-2.37,3.24,3.24,0,0,0-.83-2.32,2.94,2.94,0,0,0-2.2-.86,2.74,2.74,0,0,0-1.42.35,2.58,2.58,0,0,0-1,1.07l-1.94-.48L75.68,82h6.9v2.21H77.3l-.6,3.27A6.7,6.7,0,0,1,78,86.84a3.63,3.63,0,0,1,1-.13,4.49,4.49,0,0,1,3.47,1.58,5.89,5.89,0,0,1-.09,7.77,5.19,5.19,0,0,1-3.9,1.62,4.59,4.59,0,0,1-3.47-1.37,5.52,5.52,0,0,1-1.44-3.77Z" transform="translate(-4.91 -7.09)" fill="#fff"/><path d="M85.63,90.53a4.79,4.79,0,0,1,1.8-1.7,5.53,5.53,0,0,1-1.06-1.5A3.68,3.68,0,0,1,86,85.81a4.18,4.18,0,0,1,1.14-2.94,4,4,0,0,1,5.68,0,4.13,4.13,0,0,1,1.17,3,3.27,3.27,0,0,1-.36,1.52,5.39,5.39,0,0,1-1.1,1.48,4.69,4.69,0,0,1,1.81,1.64,4.11,4.11,0,0,1,.52,2.14,4.92,4.92,0,0,1-1.45,3.63A4.7,4.7,0,0,1,90,97.7a4.55,4.55,0,0,1-3.36-1.46,4.88,4.88,0,0,1-1.45-3.53A4.42,4.42,0,0,1,85.63,90.53ZM88,94.64a2.76,2.76,0,0,0,4.75-1.91,2.7,2.7,0,0,0-.71-2,2.66,2.66,0,0,0-2-.79,2.74,2.74,0,0,0-2.07.77,2.57,2.57,0,0,0-.73,1.93A2.74,2.74,0,0,0,88,94.64Zm.71-7.41a1.65,1.65,0,0,0,1.3.55,1.73,1.73,0,0,0,1.32-.51,2.1,2.1,0,0,0,.47-1.44,2,2,0,0,0-.51-1.44,1.77,1.77,0,0,0-2.53,0,1.89,1.89,0,0,0-.51,1.38A2.13,2.13,0,0,0,88.73,87.23Z" transform="translate(-4.91 -7.09)" fill="#fff"/><path d="M187,37.81a12.15,12.15,0,0,1,4.65,9.82,12,12,0,0,1-4.65,9.7,16.5,16.5,0,0,1-20.6,0,12,12,0,0,1-4.59-9.7,12.22,12.22,0,0,1,4.59-9.82,16.53,16.53,0,0,1,20.6,0ZM166,66.59h6.63v10.6h36.21V82.9H169.9A3.84,3.84,0,0,1,167,82a4.34,4.34,0,0,1-1-3.21Zm5.1-24.28a6.71,6.71,0,0,0-2.55,5.32,6.61,6.61,0,0,0,2.55,5.21A8.33,8.33,0,0,0,176.71,55a8.22,8.22,0,0,0,5.51-2.11,6.58,6.58,0,0,0,2.61-5.21,6.79,6.79,0,0,0-2.61-5.32,8.22,8.22,0,0,0-5.51-2.11A8.33,8.33,0,0,0,171.09,42.31Zm30.7-6.05h6.64V67.93h-6.64Z" transform="translate(-4.91 -7.09)" fill="#58595b"/><path d="M240.35,43.8a14.38,14.38,0,0,1,3.13,4.77,14.66,14.66,0,0,1,1.13,5.66,16.44,16.44,0,0,1-3.69,10.87A13.67,13.67,0,0,1,229.86,70,13.81,13.81,0,0,1,218.67,65,16.32,16.32,0,0,1,215,54.23a15.7,15.7,0,0,1,1.07-5.66,14.88,14.88,0,0,1,3.18-4.77H214V38.15h12.21V33.66h7.14v4.49h12.26V43.8Zm-16.68,3.49a12.09,12.09,0,0,0-2,6.94,11.19,11.19,0,0,0,2,6.71,7.11,7.11,0,0,0,6.07,3.16,7.21,7.21,0,0,0,6.07-3.16,11,11,0,0,0,2.1-6.71,11.66,11.66,0,0,0-2.1-6.94,7.16,7.16,0,0,0-6.07-3.21A7.07,7.07,0,0,0,223.67,47.29Zm33.66,11.37V83.17h-6.64V36.26h6.64V53H264v5.71Z" transform="translate(-4.91 -7.09)" fill="#58595b"/><path d="M317.05,54.5h-2.44V36.26H270V42h38V54.5H292.54V46.69H286V54.5H268.31v5.72h11.28a12.6,12.6,0,0,0-5.09,10.14,14,14,0,0,0,5.56,11.37,19.15,19.15,0,0,0,12.42,4.21,18.69,18.69,0,0,0,12.2-4.21,13.94,13.94,0,0,0,5.63-11.37c0-4-1.76-7.37-5.21-10.14h11.95ZM299.69,77.29a10.79,10.79,0,0,1-14.7,0,9,9,0,0,1-3.23-6.93,9.21,9.21,0,0,1,3.23-7,11,11,0,0,1,14.7,0,9.14,9.14,0,0,1,3.29,7A8.9,8.9,0,0,1,299.69,77.29Z" transform="translate(-4.91 -7.09)" fill="#58595b"/><path d="M363.19,36.26V44H350.45a11.29,11.29,0,0,0-4.05-6.49,15.7,15.7,0,0,0-19.18,0,11.68,11.68,0,0,0,0,18.14,15.33,15.33,0,0,0,19.18,0,11.38,11.38,0,0,0,3.93-6h12.86v8.7h6.65V36.26Zm-21.39,15a7.65,7.65,0,0,1-9.93,0,6,6,0,0,1-2.27-4.72,5.82,5.82,0,0,1,2.27-4.65,7.81,7.81,0,0,1,9.93,0,5.77,5.77,0,0,1,2.33,4.65A5.94,5.94,0,0,1,341.8,51.29Z" transform="translate(-4.91 -7.09)" fill="#58595b"/><path d="M363.25,67.15H333.91V62.66h-6.52V78.74a4.34,4.34,0,0,0,1,3.21,4.07,4.07,0,0,0,2.95,1h34.5a3.89,3.89,0,0,0,2.9-1,4.12,4.12,0,0,0,1.08-3.21V62.66h-6.59Zm0,10.09H333.91V72.47h29.34Z" transform="translate(-4.91 -7.09)" fill="#58595b"/><path d="M406.61,42h-11c0,3.85.81,6.81,2.32,8.88q2.67,3.6,8.85,4.32v6.27a18.64,18.64,0,0,1-7.37-1.78,15.19,15.19,0,0,1-7.26-5.93,16.19,16.19,0,0,1-7.44,5.88,19.35,19.35,0,0,1-7.32,1.83V55.17q6.24-.72,8.85-4.32,2.16-3,2.27-8.88H377.74V36.26h28.87ZM379.89,66.76h6.64V77.19h36.2V82.9H383.86a4.1,4.1,0,0,1-3-1,4.38,4.38,0,0,1-1-3.21ZM415.7,45.08V36.26h6.63V67.93H415.7V50.85h-7.89V45.08Z" transform="translate(-4.91 -7.09)" fill="#58595b"/><path d="M451.08,63.43H429.74V57.78h48v5.65H457.6v9h-6.52ZM431.45,36.26H476.1V49A4.49,4.49,0,0,1,475,52.34a4.09,4.09,0,0,1-2.95.95H435.3a3.85,3.85,0,0,1-2.89-.95,4.81,4.81,0,0,1-1-3.38Zm6.63,40.93h38V82.9H435.41a4,4,0,0,1-3-1,4.46,4.46,0,0,1-1-3.27V67.59h6.63Zm31.61-35.33H437.86v5.77h31.83Z" transform="translate(-4.91 -7.09)" fill="#58595b"/><path d="M491.83,66.87h20.88v5.71H489.39a5.42,5.42,0,0,1-3-.66A3.2,3.2,0,0,1,485.13,69V36.26h21.68V42h-15Zm31.6-9.93h-5.22V83.17h-6.12V36.26h6.12v15h5.22v-15h6.31V83.17h-6.31Z" transform="translate(-4.91 -7.09)" fill="#58595b"/><path d="M560.59,43.69a9.31,9.31,0,0,1,1.59,2.55,7.56,7.56,0,0,1,.62,3,10.34,10.34,0,0,1-3.92,8.32A13.31,13.31,0,0,1,550,60.66a13.83,13.83,0,0,1-9.07-3.11,10.24,10.24,0,0,1-4-8.32,7.63,7.63,0,0,1,2.26-5.54h-3.85V38.15h11.29V33.66h7.15v4.49h10.67v5.54Zm19.69,39.48h-6.64V69.64H537.83V63.88h42.45Zm-34.9-37.82a5.32,5.32,0,0,0-1.93,4.11,5.19,5.19,0,0,0,1.93,4,6.63,6.63,0,0,0,8.91,0,5.17,5.17,0,0,0,2-4,5.29,5.29,0,0,0-2-4.11,6.81,6.81,0,0,0-8.91,0Zm34.9,4.22v9.2h-6.64V36.26h6.64v7.6H587v5.71Z" transform="translate(-4.91 -7.09)" fill="#58595b"/><path d="M163.65,123.07V100.61h4.54v22.46Z" transform="translate(-4.91 -7.09)" fill="#58595b"/><path d="M172.55,123.07V100.61H177l9.19,15v-15h4.21v22.46h-4.55l-9-14.64v14.64Z" transform="translate(-4.91 -7.09)" fill="#58595b"/><path d="M195.19,123.07V100.61h4.53v8.84h8.89v-8.84h4.53v22.46h-4.53v-9.82h-8.89v9.82Z" transform="translate(-4.91 -7.09)" fill="#58595b"/><path d="M238.08,123.07h-4.93l-2-5.1h-9l-1.85,5.1h-4.81l8.75-22.46h4.79Zm-8.34-8.89-3.1-8.33-3,8.33Z" transform="translate(-4.91 -7.09)" fill="#58595b"/><path d="M251.74,123.07V104.41h-6.66v-3.8h17.85v3.8h-6.65v18.66Z" transform="translate(-4.91 -7.09)" fill="#58595b"/><path d="M265.86,123.07V100.61h16.65v3.8H270.39v5h11.28v3.78H270.39v6.12h12.55v3.78Z" transform="translate(-4.91 -7.09)" fill="#58595b"/><path d="M301.16,114.82l4.39,1.39a9.82,9.82,0,0,1-3.36,5.46,10.56,10.56,0,0,1-13.32-1.27c-1.92-2-2.88-4.82-2.88-8.36,0-3.73,1-6.64,2.89-8.71a9.94,9.94,0,0,1,7.62-3.1,9.29,9.29,0,0,1,6.69,2.44,8.78,8.78,0,0,1,2.3,4.13L301,107.87a4.66,4.66,0,0,0-4.73-3.77,5.11,5.11,0,0,0-4.06,1.8c-1,1.19-1.55,3.13-1.55,5.8q0,4.27,1.53,6.07a5,5,0,0,0,4,1.81,4.54,4.54,0,0,0,3.11-1.15A6.69,6.69,0,0,0,301.16,114.82Z" transform="translate(-4.91 -7.09)" fill="#58595b"/><path d="M309.46,123.07V100.61H314v8.84h8.88v-8.84h4.54v22.46h-4.54v-9.82H314v9.82Z" transform="translate(-4.91 -7.09)" fill="#58595b"/><path d="M332.15,123.07V100.61h4.41l9.2,15v-15H350v22.46h-4.55l-9.06-14.64v14.64Z" transform="translate(-4.91 -7.09)" fill="#58595b"/><path d="M354.63,123.07V100.61h4.53v22.46Z" transform="translate(-4.91 -7.09)" fill="#58595b"/><path d="M377.85,114.82l4.4,1.39a9.78,9.78,0,0,1-3.37,5.46,9.56,9.56,0,0,1-6,1.79,9.69,9.69,0,0,1-7.36-3.06c-1.91-2-2.87-4.82-2.87-8.36,0-3.73,1-6.64,2.89-8.71a9.94,9.94,0,0,1,7.62-3.1,9.31,9.31,0,0,1,6.69,2.44,8.78,8.78,0,0,1,2.3,4.13l-4.49,1.07A4.66,4.66,0,0,0,373,104.1a5.11,5.11,0,0,0-4,1.8c-1,1.19-1.55,3.13-1.55,5.8q0,4.27,1.53,6.07a5,5,0,0,0,4,1.81,4.54,4.54,0,0,0,3.12-1.15A6.75,6.75,0,0,0,377.85,114.82Z" transform="translate(-4.91 -7.09)" fill="#58595b"/><path d="M406.4,123.07h-4.93l-2-5.1h-9l-1.85,5.1h-4.81l8.75-22.46h4.79Zm-8.35-8.89-3.1-8.33-3,8.33Z" transform="translate(-4.91 -7.09)" fill="#58595b"/><path d="M408.92,123.07V100.79h4.54v18.5h11.28v3.78Z" transform="translate(-4.91 -7.09)" fill="#58595b"/><path d="M451.66,114.82l4.39,1.39a9.82,9.82,0,0,1-3.36,5.46,10.56,10.56,0,0,1-13.32-1.27c-1.93-2-2.88-4.82-2.88-8.36,0-3.73,1-6.64,2.89-8.71a9.93,9.93,0,0,1,7.62-3.1,9.29,9.29,0,0,1,6.69,2.44,8.78,8.78,0,0,1,2.3,4.13l-4.49,1.07a4.66,4.66,0,0,0-4.73-3.77,5.08,5.08,0,0,0-4,1.8c-1,1.19-1.56,3.13-1.56,5.8q0,4.27,1.53,6.07a5,5,0,0,0,4,1.81,4.54,4.54,0,0,0,3.12-1.15A6.69,6.69,0,0,0,451.66,114.82Z" transform="translate(-4.91 -7.09)" fill="#58595b"/><path d="M459,112a14.34,14.34,0,0,1,1-5.76,10.56,10.56,0,0,1,2.09-3.08,8.85,8.85,0,0,1,2.91-2,12.19,12.19,0,0,1,4.84-.89,10.5,10.5,0,0,1,7.94,3.08q3,3.07,3,8.56t-2.95,8.51a11.8,11.8,0,0,1-15.88,0Q459,117.34,459,112Zm4.68-.15a8.43,8.43,0,0,0,1.76,5.78,6.07,6.07,0,0,0,8.93,0q1.73-2,1.73-5.86T474.43,106a6.27,6.27,0,0,0-9,0Q463.7,108,463.7,111.83Z" transform="translate(-4.91 -7.09)" fill="#58595b"/><path d="M484.48,123.07V100.79H489v18.5h11.28v3.78Z" transform="translate(-4.91 -7.09)" fill="#58595b"/><path d="M503.64,123.07V100.79h4.54v18.5h11.27v3.78Z" transform="translate(-4.91 -7.09)" fill="#58595b"/><path d="M522.69,123.07V100.61h16.65v3.8H527.22v5H538.5v3.78H527.22v6.12h12.55v3.78Z" transform="translate(-4.91 -7.09)" fill="#58595b"/><path d="M554.06,114.82V111h9.78v9a12.33,12.33,0,0,1-4.13,2.43,15.06,15.06,0,0,1-5.48,1,12.35,12.35,0,0,1-6.14-1.48,9.44,9.44,0,0,1-3.94-4.23,13.67,13.67,0,0,1-1.32-6,13.07,13.07,0,0,1,1.47-6.24,9.89,9.89,0,0,1,4.31-4.18,11.56,11.56,0,0,1,5.38-1.12,10.73,10.73,0,0,1,6.53,1.75,7.93,7.93,0,0,1,3,4.85l-4.51.84a4.74,4.74,0,0,0-1.78-2.61,5.41,5.41,0,0,0-3.27-1,6.13,6.13,0,0,0-4.73,1.89,7.94,7.94,0,0,0-1.75,5.59q0,4,1.77,6a6,6,0,0,0,4.66,2,7.9,7.9,0,0,0,2.86-.56,9.63,9.63,0,0,0,2.46-1.36v-2.84Z" transform="translate(-4.91 -7.09)" fill="#58595b"/><path d="M568,123.07V100.61h16.66v3.8H572.56v5h11.27v3.78H572.56v6.12h12.55v3.78Z" transform="translate(-4.91 -7.09)" fill="#58595b"/></svg>